<svg xmlns="http://www.w3.org/2000/svg"  viewBox="0 0 48 48" width="48px" height="48px" baseProfile="basic"><path d="M48,24v-4c0-0.553-0.448-1-1-1h-1.954c0.358-0.678,0.554-1.434,0.554-2.2c0-2.646-2.153-4.8-4.8-4.8h-7	c-0.552,0-1,0.447-1,1v4.443l-1.38-4.137l-0.3-0.7C30.962,12.238,30.601,12,30.2,12h-5.6c-0.18,0-0.352,0.048-0.5,0.134	C23.953,12.049,23.782,12,23.6,12H9.1c-2.412,0-4.3,1.933-4.3,4.4c0,1.159,0.4,1.756,0.668,2.154	c0.035,0.053,0.08,0.106,0.125,0.152c0.031,0.031,0.091,0.1,0.169,0.193H1c-0.552,0-1,0.447-1,1V23v0.9V26h0.025	c0,0.099-0.011,0.198,0.019,0.294l3.606,11.02C3.786,37.723,4.168,38,4.6,38h2.5c0.394,0,0.751-0.231,0.913-0.591L8.5,36.321	l0.487,1.088C9.148,37.769,9.506,38,9.9,38h2.4c0.16,0,0.313-0.038,0.45-0.107C12.888,37.962,13.042,38,13.2,38h4.5	c0.447,0,0.839-0.296,0.961-0.726l0.171-0.615L19.086,36h1.029l0.223,0.574l0.2,0.7C20.661,37.704,21.054,38,21.5,38h4.486	c0.004,0,0.009,0,0.013,0c0.004,0,0.009,0,0.013,0H30.7c0.513,0,0.936-0.387,0.993-0.885c0.015,0.012,0.028,0.023,0.042,0.034	C32.314,37.706,33.062,38,33.9,38h8.3c2.467,0,4.4-1.933,4.4-4.4v-1.916h-0.515c-0.043-0.068-0.087-0.141-0.124-0.196	c-0.01-0.014-0.05-0.073-0.061-0.087L45.6,31H47c0.552,0,1-0.447,1-1v-4c0-0.553-0.448-1-1-1C47.552,25,48,24.553,48,24z"/><path fill="#fff" d="M46,18h-2.7l0,0c-0.1-0.1-0.1-0.1-0.2-0.2c0.9-0.7,1.5-1.8,1.5-3c0-2.1-1.7-3.8-3.8-3.8h-6h-1v1v9	v0.6l-0.3-0.9l-3-9L30.2,11h-0.7h-4.2h-0.7l-0.2,0.7l-0.8,2.5V14v-2v-1h-1H9.1c-1.9,0-3.3,1.5-3.3,3.4c0,0.9,0.3,1.3,0.5,1.6l0,0	l0,0c0.2,0.2,1,1.2,1.5,1.9H2H1v1v2v1h1h7.8c1.9,0,3.4-1.5,3.4-3.4c0-0.9-0.3-1.3-0.5-1.6l-1.5-2h3.5v6v1h1h2.6h1v-1v-6h3.3h0.7	l-1.8,5.7L21,22h1.4h2.5h0.7l0.2-0.7l0.5-1.3h2.4l0.5,1.3l0.2,0.7H30h2.5h1.2l0,0h1h2.7h1v-1v-1.1c0.6,0.6,1.2,1.1,1.6,1.5	c0.2,0.1,0.6,0.6,1.4,0.6H46h1v-1v-2v-1H46z M15.5,25.3L12.3,35H9.9l-1.4-3.125L7.1,35H4.6l-3.2-9.7L1,24h1.4H5h0.7l0.2,0.7l0.3,1.1	l0.4-1.1L6.9,24h0.7h1.8h0.7l0.2,0.7l0.4,1.1l0.3-1.1l0.2-0.7H12h2.6H16L15.5,25.3z M41.3,24c-1.9,0-3.4,1.5-3.4,3.4	c0,0.9,0.3,1.3,0.5,1.6l0,0l0,0c0.2,0.2,1,1.2,1.6,1.9h-4.5c0,0,0,0-0.1,0l-0.1-0.1c0.9-0.7,1.5-1.8,1.5-3c0-2.1-1.7-3.8-3.8-3.8	h-3.4H27h-1v1v9v1l-0.4-1.3l-3-9L22.4,24h-0.7h-4.2h-0.7l-0.2,0.7l-2.9,9L13.2,35h1.4H17h0.7l0.2-0.7l0.5-1.3h2.4l0.5,1.3l0.2,0.7	h0.7h2.5H26l0,0h1h2.7h1v-1v-1.1c0.6,0.6,1.2,1.1,1.7,1.5c0.4,0.4,0.9,0.6,1.5,0.6h8.3c1.9,0,3.4-1.5,3.4-3.4c0-0.9-0.3-1.3-0.5-1.6	l-1.5-2H46h1v-1v-2v-1h-1L41.3,24z"/><path d="M25.999,36c-0.004,0-0.008,0-0.013,0H21.5c-0.446,0-0.839-0.296-0.961-0.726l-0.2-0.7L20.115,34h-1.029l-0.253,0.659	l-0.171,0.615C18.54,35.704,18.147,36,17.7,36h-4.5c-0.159,0-0.313-0.038-0.45-0.107C12.613,35.962,12.46,36,12.3,36H9.9	c-0.394,0-0.751-0.231-0.913-0.591L8.5,34.321l-0.487,1.088C7.852,35.769,7.494,36,7.1,36H4.6c-0.432,0-0.814-0.277-0.95-0.687	l-3.606-11.02c-0.094-0.303-0.038-0.633,0.151-0.888C0.384,23.15,0.683,23,1,23h4.7c0.222,0,0.431,0.073,0.6,0.2	C6.47,23.073,6.679,23,6.9,23h3.2c0.201,0,0.391,0.06,0.55,0.165C10.81,23.06,11,23,11.2,23H16c0.14,0,0.275,0.029,0.4,0.083	C16.523,23.029,16.659,23,16.8,23H21c-0.325,0-0.63-0.158-0.817-0.424c-0.023-0.033-0.044-0.067-0.063-0.103	c-0.181,0.258-0.48,0.427-0.819,0.427h-4.6c-0.552,0-1-0.447-1-1v-1.331c-0.729,1.397-2.186,2.331-3.9,2.331H1c-0.552,0-1-0.447-1-1	v-4c0-0.553,0.448-1,1-1h4.762c-0.079-0.094-0.138-0.162-0.169-0.193c-0.044-0.046-0.089-0.1-0.125-0.152	C5.2,16.156,4.8,15.56,4.8,14.4c0-2.468,1.889-4.4,4.3-4.4h14.5c0.182,0,0.353,0.049,0.5,0.134C24.249,10.048,24.42,10,24.6,10h5.6	c0.4,0,0.762,0.238,0.919,0.606l0.3,0.7l1.38,4.137V11c0-0.553,0.448-1,1-1h7c2.647,0,4.8,2.153,4.8,4.8	c0,0.767-0.196,1.522-0.554,2.2H47c0.552,0,1,0.447,1,1v4c0,0.553-0.448,1-1,1c0.552,0,1,0.447,1,1v4c0,0.553-0.448,1-1,1h-1.4	l0.3,0.4c0.011,0.014,0.051,0.073,0.061,0.087C46.2,29.844,46.6,30.44,46.6,31.6c0,2.468-1.933,4.4-4.4,4.4h-8.3	c-0.838,0-1.585-0.294-2.164-0.851c-0.014-0.011-0.028-0.022-0.042-0.034C31.636,35.613,31.213,36,30.7,36h-4.688	C26.008,36,26.003,36,25.999,36z M30.7,31.9c0.26,0,0.516,0.102,0.707,0.293c0.583,0.583,1.171,1.068,1.618,1.427	c0.029,0.022,0.056,0.047,0.082,0.072C33.319,33.905,33.564,34,33.9,34h8.3c1.346,0,2.4-1.055,2.4-2.4	c0-0.551-0.139-0.757-0.3-0.997L42.8,28.6c-0.228-0.303-0.264-0.708-0.095-1.047S43.221,27,43.6,27H46v-2h-4.7	c-1.346,0-2.4,1.055-2.4,2.4c0,0.536,0.132,0.746,0.287,0.978c0.156,0.173,0.434,0.507,0.747,0.884	c0.269,0.325,0.566,0.686,0.826,0.988c0.254,0.296,0.313,0.714,0.149,1.068C40.745,31.673,40.391,31.9,40,31.9h-4.6	c-0.266,0-0.521-0.106-0.709-0.295l-0.1-0.101c-0.202-0.203-0.307-0.482-0.289-0.769s0.158-0.55,0.384-0.726	c0.697-0.543,1.114-1.369,1.114-2.211c0-1.544-1.256-2.8-2.8-2.8h-6v9h2.7v-1.1c0-0.404,0.244-0.77,0.617-0.924	C30.441,31.925,30.571,31.9,30.7,31.9z M22.25,34h2.396l-0.001-0.006L21.646,25h-4.093l-2.899,9h2.293l0.519-1.359	C17.615,32.255,17.986,32,18.4,32h2.4c0.414,0,0.785,0.255,0.933,0.641L22.25,34z M10.548,34h1.029l2.969-9h-2.591l-0.29,1.063	c-0.115,0.421-0.488,0.719-0.923,0.736c-0.435,0.029-0.832-0.247-0.981-0.657L9.348,25H7.56l-0.04,0.094L7.14,26.142	c-0.149,0.41-0.55,0.699-0.981,0.657c-0.436-0.018-0.809-0.315-0.924-0.735L4.945,25H2.354l0.001,0.006L5.323,34h1.129l1.135-2.534	c0.161-0.359,0.519-0.591,0.913-0.591s0.751,0.231,0.913,0.591L10.548,34z M37.297,29.9h0.567c-0.075-0.088-0.134-0.155-0.172-0.193	c-0.044-0.046-0.089-0.1-0.125-0.152c-0.023-0.035-0.047-0.07-0.072-0.108C37.438,29.601,37.371,29.752,37.297,29.9z M22.4,23	c0.446,0,0.839,0.296,0.961,0.726l0.2,0.7L25,28.739V24c0-0.553,0.448-1,1-1h3.4c-0.447,0-0.839-0.296-0.961-0.726l-0.2-0.7	L28.016,21h-1.029l-0.253,0.659l-0.171,0.615C26.439,22.704,26.047,23,25.6,23H22.4z M33,23c1.857,0,3.471,1.06,4.269,2.606	C37.943,24.058,39.475,23,41.3,23h0.1c-0.958,0-1.555-0.465-1.841-0.688c-0.062-0.031-0.122-0.074-0.177-0.121	C39.293,22.651,38.887,23,38.4,23H33z M40.63,20.617c0.049,0.034,0.103,0.073,0.159,0.117C40.972,20.877,41.129,21,41.4,21H46v-2	h-2.7c-0.265,0-0.52-0.105-0.707-0.293l-0.202-0.202c-0.202-0.203-0.307-0.482-0.289-0.769c0.018-0.285,0.158-0.55,0.384-0.726	c0.698-0.543,1.114-1.369,1.114-2.211c0-1.544-1.256-2.8-2.8-2.8h-6v9h2.6v-1.1c0-0.404,0.244-0.769,0.617-0.924	c0.374-0.152,0.803-0.068,1.09,0.217c0.316,0.316,0.634,0.604,0.918,0.862C40.25,20.259,40.455,20.446,40.63,20.617z M30.151,21	h2.395L29.5,12h-4.146l-0.801,2.505c-0.051,0.16-0.14,0.299-0.253,0.41c-0.001,0.096-0.017,0.192-0.046,0.286L22.418,21h2.43	l0.519-1.359C25.515,19.255,25.886,19,26.3,19h2.4c0.414,0,0.785,0.255,0.933,0.641L30.151,21z M20.3,15.9v5.087l0.258-0.724	l1.377-4.363H20.3z M15.7,20.9h2.6v-6c0-0.553,0.448-1,1-1h3.3V12H9.1c-1.312,0-2.3,1.032-2.3,2.4c0,0.533,0.131,0.744,0.285,0.976	c0.326,0.357,1.071,1.302,1.529,1.943c0.217,0.305,0.247,0.706,0.075,1.039S8.174,18.9,7.8,18.9H2v2h7.8c1.346,0,2.4-1.055,2.4-2.4	c0-0.551-0.139-0.757-0.299-0.996L10.4,15.5c-0.228-0.303-0.264-0.708-0.095-1.047S10.821,13.9,11.2,13.9h3.5c0.552,0,1,0.447,1,1	V20.9z M13.2,15.9l0.3,0.4c0.011,0.014,0.051,0.073,0.061,0.088c0.042,0.063,0.09,0.134,0.139,0.214V15.9H13.2z"/><polygon points="26.25,16.75 27.45,13.15 28.65,16.75"/><path d="M37.45,13.75h2.6c0.6,0,1.1,0.4,1.1,1s-0.5,1-1.1,1h-2.6V13.75z"/><polygon points="18.375,30 19.575,26.4 20.775,30"/><path d="M29.575,27h2.6c0.6,0,1.1,0.4,1.1,1s-0.5,1-1.1,1h-2.6V27z"/></svg>